<?xml version="1.0" encoding="UTF-8"?>
<svg id="Layer_1" xmlns="http://www.w3.org/2000/svg" version="1.1" viewBox="0 0 32 32">
  <!-- Generator: Adobe Illustrator 29.6.1, SVG Export Plug-In . SVG Version: 2.1.1 Build 9)  -->
  <defs>
    <style>
      .st0 {
        fill: #fff;
      }

      .st1 {
        fill: #0657f9;
        fill-rule: evenodd;
      }
    </style>
  </defs>
  <circle class="st0" cx="16" cy="16" r="16"/>
  <path class="st1" d="M9.3,6.3l-1.3,1.3,3.1,3.1,3.1,3.1v5.8h3.6v-5.8l3.1-3.1,3.1-3.1-1.3-1.3-1.3-1.3-2.7,2.7c-1.5,1.5-2.7,2.7-2.7,2.7s-1.2-1.2-2.7-2.7c-1.5-1.5-2.7-2.7-2.7-2.7s-.6.6-1.3,1.3ZM7.9,13.8c-.4.9-.6,1.6-.8,2.5-.4,2.6.2,5.2,1.9,7.3.3.3,1,1.1,1.4,1.4,1.5,1.2,3.2,1.9,5.1,2,1.1,0,2.3,0,3.4-.5,3.2-1.1,5.6-3.9,6.1-7.4.2-1.3,0-2.7-.3-4-.2-.5-.5-1.3-.6-1.6h0c0-.1-1.4,1.3-1.4,1.3-1.1,1.1-1.4,1.4-1.3,1.4.1.4.2.8.2,1.3,0,1-.1,1.7-.5,2.5-.7,1.6-2.1,2.7-3.9,3.1-.3,0-.4,0-1.1,0-.6,0-.8,0-1,0-1.7-.4-3.1-1.4-3.8-3-.3-.7-.5-1.4-.5-2.2,0-.6,0-1,.1-1.5v-.3c0,0-1.3-1.4-1.3-1.4-.7-.8-1.4-1.4-1.4-1.4s0,.1-.2.3Z"/>
</svg>