<svg width="24" height="24" viewBox="0 0 24 24" fill="none" xmlns="http://www.w3.org/2000/svg">
<g clip-path="url(#clip0_9_520)">
<circle cx="12" cy="12" r="12" fill="#05CD23"/>
<path d="M16.7021 14.3965C16.7021 15.3984 16.3418 16.2393 15.6211 16.9189C14.9004 17.5986 13.9541 17.9883 12.7822 18.0879V19.9248H11.4111V18.0703C10.1455 17.9297 9.14648 17.4814 8.41406 16.7256C7.6875 15.9697 7.30078 15.0205 7.25391 13.8779H8.87109C8.93555 14.7275 9.27246 15.4072 9.88184 15.917C10.4912 16.4268 11.2764 16.6816 12.2373 16.6816C13.1045 16.6816 13.8047 16.4941 14.3379 16.1191C14.8711 15.7441 15.1377 15.2197 15.1377 14.5459C15.1377 14.3525 15.1143 14.1768 15.0674 14.0186C15.0264 13.8545 14.9561 13.7109 14.8564 13.5879C14.7627 13.459 14.6602 13.3447 14.5488 13.2451C14.4434 13.1455 14.2998 13.0547 14.1182 12.9727C13.9424 12.8906 13.7754 12.8203 13.6172 12.7617C13.4648 12.7031 13.2656 12.6475 13.0195 12.5947C12.7793 12.5361 12.5654 12.4893 12.3779 12.4541C12.1963 12.4189 11.9648 12.3779 11.6836 12.3311C11.2207 12.2549 10.8135 12.1699 10.4619 12.0762C10.1162 11.9824 9.75 11.8477 9.36328 11.6719C8.98242 11.4961 8.66602 11.291 8.41406 11.0566C8.16797 10.8223 7.96289 10.5205 7.79883 10.1514C7.64062 9.77637 7.56152 9.35156 7.56152 8.87695C7.56152 7.875 7.91309 7.05176 8.61621 6.40723C9.3252 5.75684 10.2568 5.39062 11.4111 5.30859V3.4541H12.7822V5.34375C13.9072 5.49609 14.7979 5.90918 15.4541 6.58301C16.1162 7.25684 16.4795 8.10352 16.5439 9.12305H14.918C14.8301 8.39062 14.5107 7.80762 13.96 7.37402C13.415 6.93457 12.7148 6.71484 11.8594 6.71484C11.0215 6.71484 10.3564 6.89355 9.86426 7.25098C9.37207 7.6084 9.12598 8.11816 9.12598 8.78027C9.12598 8.99121 9.1582 9.18457 9.22266 9.36035C9.28711 9.53613 9.36621 9.68555 9.45996 9.80859C9.55957 9.93164 9.7002 10.0488 9.88184 10.1602C10.0635 10.2656 10.2334 10.3535 10.3916 10.4238C10.5557 10.4883 10.7725 10.5557 11.042 10.626C11.3174 10.6904 11.5547 10.7432 11.7539 10.7842C11.9531 10.8193 12.2168 10.8662 12.5449 10.9248C13.0078 11.001 13.415 11.0859 13.7666 11.1797C14.124 11.2734 14.4961 11.4111 14.8828 11.5928C15.2695 11.7686 15.5859 11.9766 15.832 12.2168C16.084 12.4512 16.292 12.7559 16.4561 13.1309C16.6201 13.5 16.7021 13.9219 16.7021 14.3965Z" fill="white"/>
</g>
<defs>
<clipPath id="clip0_9_520">
<rect width="24" height="24" fill="white"/>
</clipPath>
</defs>
</svg>
